<mxfile host="app.diagrams.net" modified="2024-07-02T13:38:53.466Z" agent="Mozilla/5.0 (Windows NT 10.0; Win64; x64) AppleWebKit/537.36 (KHTML, like Gecko) Chrome/126.0.0.0 Safari/537.36" etag="34lq8oQ4VNlj1LUR06Ue" version="24.5.4" type="github">
  <diagram name="第 1 页" id="KX7cDK9Xgs6qOpK5y4_L">
    <mxGraphModel dx="875" dy="442" grid="1" gridSize="10" guides="1" tooltips="1" connect="1" arrows="1" fold="1" page="1" pageScale="1" pageWidth="827" pageHeight="1169" math="0" shadow="0">
      <root>
        <mxCell id="0" />
        <mxCell id="1" parent="0" />
        <mxCell id="0xQ35MbZADBkwbIBqB0D-15" style="edgeStyle=orthogonalEdgeStyle;rounded=0;orthogonalLoop=1;jettySize=auto;html=1;exitX=0.5;exitY=1;exitDx=0;exitDy=0;entryX=0.5;entryY=1;entryDx=0;entryDy=0;fillColor=#f8cecc;strokeColor=#b85450;curved=1;strokeWidth=2;" edge="1" parent="1" source="0xQ35MbZADBkwbIBqB0D-1" target="0xQ35MbZADBkwbIBqB0D-3">
          <mxGeometry relative="1" as="geometry" />
        </mxCell>
        <mxCell id="0xQ35MbZADBkwbIBqB0D-16" value="①" style="edgeLabel;html=1;align=center;verticalAlign=middle;resizable=0;points=[];" vertex="1" connectable="0" parent="0xQ35MbZADBkwbIBqB0D-15">
          <mxGeometry x="-0.3067" y="3" relative="1" as="geometry">
            <mxPoint as="offset" />
          </mxGeometry>
        </mxCell>
        <mxCell id="0xQ35MbZADBkwbIBqB0D-1" value="cur" style="rounded=0;whiteSpace=wrap;html=1;" vertex="1" parent="1">
          <mxGeometry x="119" y="190" width="120" height="60" as="geometry" />
        </mxCell>
        <mxCell id="0xQ35MbZADBkwbIBqB0D-17" style="edgeStyle=orthogonalEdgeStyle;rounded=1;orthogonalLoop=1;jettySize=auto;html=1;exitX=0.5;exitY=0;exitDx=0;exitDy=0;entryX=0.5;entryY=0;entryDx=0;entryDy=0;curved=0;strokeWidth=2;fillColor=#f8cecc;strokeColor=#b85450;" edge="1" parent="1" source="0xQ35MbZADBkwbIBqB0D-2" target="0xQ35MbZADBkwbIBqB0D-4">
          <mxGeometry relative="1" as="geometry" />
        </mxCell>
        <mxCell id="0xQ35MbZADBkwbIBqB0D-24" value="③" style="edgeLabel;html=1;align=center;verticalAlign=middle;resizable=0;points=[];" vertex="1" connectable="0" parent="0xQ35MbZADBkwbIBqB0D-17">
          <mxGeometry x="-0.4564" y="-3" relative="1" as="geometry">
            <mxPoint as="offset" />
          </mxGeometry>
        </mxCell>
        <mxCell id="0xQ35MbZADBkwbIBqB0D-2" value="head" style="rounded=0;whiteSpace=wrap;html=1;" vertex="1" parent="1">
          <mxGeometry x="279" y="190" width="120" height="60" as="geometry" />
        </mxCell>
        <mxCell id="0xQ35MbZADBkwbIBqB0D-20" style="edgeStyle=orthogonalEdgeStyle;rounded=0;orthogonalLoop=1;jettySize=auto;html=1;exitX=0;exitY=0.5;exitDx=0;exitDy=0;entryX=0.5;entryY=1;entryDx=0;entryDy=0;curved=1;strokeWidth=2;fillColor=#fff2cc;strokeColor=#d6b656;" edge="1" parent="1" source="0xQ35MbZADBkwbIBqB0D-3" target="0xQ35MbZADBkwbIBqB0D-2">
          <mxGeometry relative="1" as="geometry" />
        </mxCell>
        <mxCell id="0xQ35MbZADBkwbIBqB0D-23" value="②" style="edgeLabel;html=1;align=center;verticalAlign=middle;resizable=0;points=[];" vertex="1" connectable="0" parent="0xQ35MbZADBkwbIBqB0D-20">
          <mxGeometry x="-0.2386" y="-6" relative="1" as="geometry">
            <mxPoint as="offset" />
          </mxGeometry>
        </mxCell>
        <mxCell id="0xQ35MbZADBkwbIBqB0D-3" value="2" style="rounded=0;whiteSpace=wrap;html=1;" vertex="1" parent="1">
          <mxGeometry x="459" y="190" width="120" height="60" as="geometry" />
        </mxCell>
        <mxCell id="0xQ35MbZADBkwbIBqB0D-4" value="3" style="rounded=0;whiteSpace=wrap;html=1;" vertex="1" parent="1">
          <mxGeometry x="629" y="190" width="120" height="60" as="geometry" />
        </mxCell>
        <mxCell id="0xQ35MbZADBkwbIBqB0D-5" value="3" style="rounded=0;whiteSpace=wrap;html=1;" vertex="1" parent="1">
          <mxGeometry x="810" y="190" width="120" height="60" as="geometry" />
        </mxCell>
        <mxCell id="0xQ35MbZADBkwbIBqB0D-9" value="" style="endArrow=classic;html=1;rounded=0;entryX=0;entryY=0.5;entryDx=0;entryDy=0;" edge="1" parent="1" source="0xQ35MbZADBkwbIBqB0D-1" target="0xQ35MbZADBkwbIBqB0D-2">
          <mxGeometry width="50" height="50" relative="1" as="geometry">
            <mxPoint x="239" y="270" as="sourcePoint" />
            <mxPoint x="270" y="220" as="targetPoint" />
          </mxGeometry>
        </mxCell>
        <mxCell id="0xQ35MbZADBkwbIBqB0D-12" value="" style="endArrow=classic;html=1;rounded=0;entryX=0;entryY=0.5;entryDx=0;entryDy=0;" edge="1" parent="1" target="0xQ35MbZADBkwbIBqB0D-3">
          <mxGeometry width="50" height="50" relative="1" as="geometry">
            <mxPoint x="399" y="219.58" as="sourcePoint" />
            <mxPoint x="439" y="219.58" as="targetPoint" />
          </mxGeometry>
        </mxCell>
        <mxCell id="0xQ35MbZADBkwbIBqB0D-13" value="" style="endArrow=classic;html=1;rounded=0;entryX=0;entryY=0.5;entryDx=0;entryDy=0;" edge="1" parent="1" target="0xQ35MbZADBkwbIBqB0D-4">
          <mxGeometry width="50" height="50" relative="1" as="geometry">
            <mxPoint x="579" y="219.57999999999998" as="sourcePoint" />
            <mxPoint x="619" y="219.57999999999998" as="targetPoint" />
          </mxGeometry>
        </mxCell>
        <mxCell id="0xQ35MbZADBkwbIBqB0D-14" value="" style="endArrow=classic;html=1;rounded=0;entryX=0;entryY=0.5;entryDx=0;entryDy=0;" edge="1" parent="1" target="0xQ35MbZADBkwbIBqB0D-5">
          <mxGeometry width="50" height="50" relative="1" as="geometry">
            <mxPoint x="749" y="219.57999999999998" as="sourcePoint" />
            <mxPoint x="789" y="219.57999999999998" as="targetPoint" />
          </mxGeometry>
        </mxCell>
      </root>
    </mxGraphModel>
  </diagram>
</mxfile>
